<svg height="457pt" viewBox="-68 0 457 457.17268" width="457pt" xmlns="http://www.w3.org/2000/svg"><path d="m312.316406 153.984375c0 15.175781-23.953125 26.332031-28.433594 40.046875-4.570312 14.171875 8.136719 37.210938-.457031 49.003906-8.6875 11.976563-34.652343 6.949219-46.539062 15.636719-9.414063 6.855469-13.4375 25.050781-22.03125 34.46875-2.011719 2.375-4.390625 4.113281-7.222657 5.027344-13.714843 4.386719-31.726562-14.8125-46.8125-14.8125-15.179687 0-33.1875 19.199219-46.902343 14.8125-2.835938-.914063-5.210938-2.652344-7.222657-5.027344-8.59375-9.417969-12.527343-27.613281-21.945312-34.46875-11.882812-8.6875-37.851562-3.660156-46.535156-15.636719-8.59375-11.792968 4.113281-34.832031-.550782-49.003906-4.386718-13.714844-28.433593-24.871094-28.433593-40.046875s24.046875-26.332031 28.433593-39.953125c4.664063-14.171875-8.042968-37.304688.550782-49.097656 8.683594-11.976563 34.652344-6.949219 46.535156-15.632813 11.796875-8.597656 14.996094-34.835937 29.167969-39.5 13.714843-4.386719 31.722656 14.8125 46.902343 14.8125 15.085938 0 33.097657-19.199219 46.8125-14.8125 14.167969 4.664063 17.460938 30.902344 29.253907 39.5 11.886719 8.683594 37.851562 3.65625 46.539062 15.632813 8.59375 11.792968-4.113281 34.925781.457031 49.097656 4.480469 13.621094 28.433594 24.777344 28.433594 39.953125zm0 0" fill="#eb675e"/><path d="m118.226562 307.960938c-2.359374 0-4.730468-.332032-7.101562-1.089844-4.355469-1.402344-8.191406-4.027344-11.40625-7.820313-4.515625-4.949219-7.761719-11.601562-10.898438-18.046875-2.996093-6.140625-6.09375-12.492187-9.453124-14.9375-3.472657-2.542968-10.585938-3.542968-17.460938-4.507812-11.253906-1.589844-24.007812-3.382813-31.097656-13.152344-6.996094-9.597656-4.8125-22.167969-2.886719-33.257812 1.199219-6.910157 2.441406-14.054688 1.0625-18.261719-1.257813-3.925781-6.316406-8.792969-11.210937-13.507813-8.289063-7.980468-17.6875005-17.027344-17.6875005-29.390625 0-12.386719 9.4257815-21.4375 17.7382815-29.429687 4.875-4.679688 9.914062-9.519532 11.140625-13.332032 1.398437-4.257812.15625-11.425781-1.042969-18.355468-1.925781-11.109375-4.109375-23.707032 2.902344-33.320313 7.074219-9.75 19.828125-11.546875 31.082031-13.136719 6.875-.964843 13.988281-1.964843 17.453125-4.5 3.40625-2.480468 6.511719-8.882812 9.515625-15.078124 4.988281-10.277344 10.636719-21.910157 22.179688-25.722657 11.234374-3.5625 22.425781 2.328125 32.296874 7.5625 6.316407 3.335938 12.851563 6.792969 17.46875 6.792969 4.5625 0 11.0625-3.445312 17.351563-6.777344 9.875-5.230468 21.070313-11.1875 32.246094-7.597656 11.613281 3.820312 17.292969 15.464844 22.300781 25.730469 3.023438 6.199219 6.152344 12.609375 9.554688 15.089843 3.472656 2.535157 10.582031 3.535157 17.457031 4.5 11.253906 1.589844 24.007812 3.386719 31.097656 13.152344 7.011719 9.625 4.804687 22.25 2.855469 33.394532-1.207032 6.910156-2.457032 14.0625-1.101563 18.265624 1.242188 3.777344 6.273438 8.609376 11.132813 13.285157 8.316406 8 17.746094 17.074219 17.746094 29.476562 0 12.382813-9.402344 21.445313-17.695313 29.4375-4.878906 4.703125-9.929687 9.570313-11.191406 13.445313-1.347657 4.167968-.097657 11.292968 1.109375 18.1875 1.949218 11.125 4.15625 23.722656-2.871094 33.367187-7.074219 9.75-19.828125 11.542969-31.082031 13.132813-6.875.964844-13.984375 1.964844-17.441407 4.5-3.394531 2.464844-6.519531 8.839844-9.542968 15-3.15625 6.417968-6.414063 13.0625-11.136719 18.242187-2.996094 3.542969-6.832031 6.167969-11.183594 7.570313-11.15625 3.589844-22.375-2.359375-32.257812-7.597656-6.285157-3.332032-12.792969-6.777344-17.347657-6.777344-4.617187 0-11.148437 3.453125-17.464843 6.804687-7.777344 4.113281-16.375 8.660157-25.128907 8.660157zm.082032-289.679688c-.589844 0-1.128906.070312-1.605469.222656-4.121094 1.359375-7.972656 9.304688-11.371094 16.3125-3.988281 8.214844-8.105469 16.707032-15.195312 21.867188-7.152344 5.230468-16.574219 6.5625-25.679688 7.839844-7.652343 1.078124-16.320312 2.300781-18.84375 5.777343-2.460937 3.375-.976562 11.917969.324219 19.445313 1.585938 9.140625 3.226562 18.597656.414062 27.140625-2.621093 8.144531-9.351562 14.609375-15.859374 20.859375-5.683594 5.453125-12.121094 11.640625-12.121094 16.242187 0 4.585938 6.421875 10.765625 12.085937 16.222657 6.527344 6.285156 13.277344 12.777343 15.917969 21.035156 2.789062 8.472656 1.148438 17.910156-.4375 27.035156-1.300781 7.507812-2.78125 16.019531-.335938 19.375 2.535157 3.492188 11.203126 4.714844 18.855469 5.792969 9.105469 1.277343 18.527344 2.609375 25.6875 7.839843 7.027344 5.117188 11.132813 13.554688 15.113281 21.707032 2.570313 5.277344 5.226563 10.730468 8.191407 13.980468 1.203125 1.410157 2.199219 2.144532 3.261719 2.484376 3.851562 1.203124 11.402343-2.785157 18.089843-6.332032 8.289063-4.382812 16.863281-8.917968 26.019531-8.917968 9.105469 0 17.644532 4.527343 25.910157 8.910156 6.695312 3.542968 14.257812 7.535156 18.109375 6.339844 1.058594-.339844 2.054687-1.074219 3.042968-2.234376 3.1875-3.5 5.859376-8.953124 8.449219-14.230468 4.003907-8.152344 8.144531-16.589844 15.179688-21.714844 7.140625-5.222656 16.5625-6.554688 25.667969-7.832031 7.652343-1.078125 16.320312-2.300781 18.84375-5.773438 2.464843-3.386719.96875-11.921875-.351563-19.457031-1.589844-9.089844-3.238281-18.480469-.492187-26.992188 2.691406-8.238281 9.402343-14.703124 15.894531-20.964843 5.671875-5.472657 12.101562-11.667969 12.101562-16.273438 0-4.617187-6.445312-10.824219-12.132812-16.296875-6.472657-6.222656-13.167969-12.660156-15.84375-20.804687-2.765625-8.5625-1.117188-17.972657.472656-27.070313 1.320313-7.5625 2.820313-16.132812.367187-19.5-2.539062-3.492187-11.207031-4.714844-18.859374-5.792968-9.105469-1.277344-18.527344-2.609376-25.6875-7.839844-7.0625-5.152344-11.199219-13.632813-15.203126-21.839844-3.425781-7.019531-7.308593-14.972656-11.519531-16.355469-3.742187-1.234375-11.34375 2.8125-18.035156 6.355469-8.265625 4.382812-16.808594 8.910156-25.914063 8.910156-9.15625 0-17.730468-4.535156-26.019531-8.917968-5.847656-3.097657-12.378906-6.554688-16.492187-6.554688zm0 0" fill="#2a3d4f"/><path d="m214.855469 293.140625v154.878906l-54.082031-52.570312-54.078126 52.570312v-154.878906c2.011719 2.375 4.386719 4.113281 7.222657 5.027344 13.714843 4.386719 31.722656-14.8125 46.902343-14.8125 15.085938 0 33.097657 19.199219 46.8125 14.8125 2.832032-.914063 5.210938-2.652344 7.222657-5.027344zm0 0" fill="#4b6981"/><path d="m214.855469 457.164062c-2.335938 0-4.636719-.890624-6.375-2.589843l-47.707031-46.375-47.703126 46.375c-2.636718 2.574219-6.554687 3.3125-9.933593 1.867187-3.386719-1.429687-5.585938-4.742187-5.585938-8.417968v-154.886719c0-3.835938 2.394531-7.257813 5.996094-8.578125 3.589844-1.339844 7.636719-.257813 10.121094 2.667968.984375 1.160157 1.980469 1.894532 3.042969 2.234376 3.851562 1.203124 11.402343-2.785157 18.089843-6.332032 8.289063-4.382812 16.863281-8.917968 26.019531-8.917968 9.105469 0 17.644532 4.527343 25.910157 8.910156 6.695312 3.542968 14.257812 7.535156 18.109375 6.339844 1.058594-.339844 2.054687-1.074219 3.042968-2.234376 2.476563-2.925781 6.511719-4.015624 10.117188-2.667968 3.605469 1.320312 5.996094 4.742187 5.996094 8.578125v154.886719c0 3.675781-2.199219 6.988281-5.582032 8.417968-1.148437.492188-2.359374.722656-3.558593.722656zm-54.082031-70.855468c2.300781 0 4.597656.867187 6.375 2.589844l38.5625 37.480468v-118.535156c-9.621094.972656-19.054688-4.070312-27.542969-8.570312-6.285157-3.332032-12.792969-6.777344-17.347657-6.777344-4.617187 0-11.148437 3.453125-17.464843 6.804687-8.488281 4.488281-17.953125 9.5-27.519531 8.542969v118.535156l38.5625-37.480468c1.777343-1.722657 4.078124-2.589844 6.375-2.589844zm0 0" fill="#2a3d4f"/><path d="m243.140625 153.984375c0 45.484375-36.882813 82.367187-82.367187 82.367187-45.484376 0-82.363282-36.882812-82.363282-82.367187s36.878906-82.363281 82.363282-82.363281c45.484374 0 82.367187 36.878906 82.367187 82.363281zm0 0" fill="#e7e4f3"/><g fill="#2a3d4f"><path d="m160.773438 245.496094c-50.460938 0-91.507813-41.054688-91.507813-91.507813 0-50.457031 41.046875-91.511719 91.507813-91.511719 50.460937 0 91.507812 41.054688 91.507812 91.511719 0 50.453125-41.046875 91.507813-91.507812 91.507813zm0-164.734375c-40.375 0-73.222657 32.851562-73.222657 73.226562s32.847657 73.222657 73.222657 73.222657 73.222656-32.847657 73.222656-73.222657-32.847656-73.226562-73.222656-73.226562zm0 0"/><path d="m147.667969 191.363281c-2.339844 0-4.679688-.894531-6.464844-2.679687l-30.257813-30.25c-3.574218-3.570313-3.574218-9.359375 0-12.929688 3.570313-3.570312 9.355469-3.570312 12.925782 0l23.796875 23.785156 50.007812-50.007812c3.570313-3.570312 9.355469-3.570312 12.929688 0 3.570312 3.570312 3.570312 9.355469 0 12.929688l-56.472657 56.472656c-1.789062 1.785156-4.125 2.679687-6.464843 2.679687zm0 0"/></g></svg>