<svg height="480pt" viewBox="0 0 480 480" width="480pt" xmlns="http://www.w3.org/2000/svg"><path d="m80 400v-34.441406c0-19.503906-3.960938-38.796875-11.640625-56.726563l-.710937-1.664062c-7.6875-17.929688-11.648438-37.222657-11.648438-56.726563v-8.433594c0-26.28125 20.257812-49.199218 46.519531-49.992187 27.183594-.808594 49.480469 20.984375 49.480469 47.984375v10.441406c0 19.503906-3.960938 38.796875-11.640625 56.726563l-.710937 1.664062c-7.6875 17.929688-11.648438 37.222657-11.648438 56.726563v34.441406" fill="#ec483f"/><path d="m136 256c0-27-22.296875-48.792969-49.480469-47.976562-8.34375.25-16.070312 2.753906-22.75 6.863281-4.929687 7.914062-7.769531 17.28125-7.769531 27.128906v8.433594c0 19.503906 3.960938 38.796875 11.640625 56.726562l.710937 1.664063c7.6875 17.921875 11.648438 37.214844 11.648438 56.71875v34.441406h32v-18.441406c0-19.503906 3.960938-38.796875 11.640625-56.726563l.710937-1.664062c7.6875-17.929688 11.648438-37.222657 11.648438-56.726563zm0 0" fill="#ee6f6b"/><path d="m16 432c0-17.671875 14.328125-32 32-32h112c17.671875 0 32 14.328125 32 32" fill="#ba9c90"/><path d="m160 416h-112c-11.816406 0-22.015625 6.472656-27.558594 16h167.125c-5.550781-9.527344-15.75-16-27.566406-16zm0 0" fill="#edd0c4"/><path d="m0 432h208v48h-208zm0 0" fill="#876b60"/><path d="m0 448h208v32h-208zm0 0" fill="#ba9c90"/><path d="m448 48v-48h-256v368h32" fill="#717171"/><path d="m224 400h256v-320h-48v-48h-208zm0 0" fill="#a6a6a6"/><path d="m480 80-48-48v48zm0 0" fill="#717171"/><g fill="#f1f1f1"><path d="m256 64h144v48h-144zm0 0"/><path d="m248 136h208v16h-208zm0 0"/><path d="m248 168h208v16h-208zm0 0"/><path d="m408 264c-.144531 0-.28125 0-.433594-.007812-2.511718-.136719-4.832031-1.449219-6.222656-3.550782l-16-24 13.3125-8.875 10.054688 15.089844 33.144531-39.769531 12.296875 10.242187-40 48c-1.527344 1.824219-3.785156 2.871094-6.152344 2.871094zm0 0"/><path d="m408 320c-.144531 0-.28125 0-.433594-.007812-2.511718-.136719-4.832031-1.449219-6.222656-3.550782l-16-24 13.3125-8.875 10.054688 15.089844 33.144531-39.769531 12.296875 10.242187-40 48c-1.527344 1.824219-3.785156 2.871094-6.152344 2.871094zm0 0"/><path d="m408 376c-.144531 0-.28125 0-.433594-.007812-2.511718-.136719-4.832031-1.449219-6.222656-3.550782l-16-24 13.3125-8.875 10.054688 15.089844 33.144531-39.769531 12.296875 10.242187-40 48c-1.527344 1.824219-3.785156 2.871094-6.152344 2.871094zm0 0"/><path d="m248 360h128v16h-128zm0 0"/><path d="m248 304h128v16h-128zm0 0"/><path d="m248 248h128v16h-128zm0 0"/></g></svg>